<!--?xml version="1.0" encoding="utf-8"?-->
<!-- Generator: Adobe Illustrator 18.1.1, SVG Export Plug-In . SVG Version: 6.00 Build 0)  -->

<svg version="1.1" id="_x31_0" xmlns="http://www.w3.org/2000/svg" xmlns:xlink="http://www.w3.org/1999/xlink" x="0px" y="0px" viewBox="0 0 512 512" style="width: 256px; height: 256px; opacity: 1;" xml:space="preserve">
<style type="text/css">
	.st0{fill:#374149;}
</style>
<g>
	<path class="st0" d="M322.948,135.218V90.696H189.652h-0.41l0,0h-0.157v44.53c-69.333,25.475-119.467,90.15-126.577,163.699
		c-6.786,70.209,25.87,139.953,84.17,179.66c58.402,39.782,136.139,44.436,198.859,11.842
		c60.983-31.69,101.527-94.934,104.645-163.61C453.987,242.992,401.752,164.19,322.948,135.218z M218.549,279.262
		c-11.474,15.398-35.163,29.305-53.752,17.318c-20.207-13.027-13.727-42.426-1.638-58.617
		c11.471-15.366,35.186-29.359,53.748-17.376C237.161,233.656,230.619,263.062,218.549,279.262z" style="fill: rgb(0, 0, 0);"></path>
	<path class="st0" d="M269.18,61.427c0,0,0.07-0.896,0.195-2.578c0.184-0.923,0.399-2.718,1.041-5.182
		c2.088-9.637,7.904-18.999,17.509-22.511c1.967-0.598,4.013-1.217,6.367-1.506l0.841-0.164l0.258-0.019l2.503-0.157l2.522-0.164
		c0.9-0.066,1.111,0.102,1.698,0.121c1.064,0.153,1.858,0.028,3.183,0.274l3.946,0.653c26.829,7.001,51.135,28.925,80.428,22.316
		c22.218-5.014,42.074-21.91,56.611-39.422c2.237-2.698,2.057-6.653-0.302-9.246c-2.245-2.471-5.917-3.066-8.807-1.384
		c-13.153,7.658-26.434,15.937-40.709,21.037c-2.323,0.922-4.885,2.084-7.368,2.479c-1.118,0.223-1.662,0.563-3.626,0.79
		l-2.507,0.375l-0.626,0.094l-0.16,0.027c-0.2,0.032,1.435-0.234,0.719-0.125h-0.05l-0.211-0.004l-0.834-0.008
		c-11.729,0.63-23.008-6.668-33.02-11.807c-10.762-5.53-21.47-10.555-33.234-13.558c-4.533-0.79-8.918-1.389-13.517-1.666
		c-1.118-0.031-2.608-0.137-3.402-0.07l-2.526,0.145l-2.506,0.149l-0.622,0.038l-0.309,0.02l-1.103,0.114l-0.199,0.031l-1.58,0.278
		c-28.62,4.282-45.996,29.449-46.966,57.225c0.02,1.736,0.031,2.667,0.031,2.667L269.18,61.427z" style="fill: rgb(0, 0, 0);"></path>
</g>
</svg>
