<!--?xml version="1.0" encoding="utf-8"?-->
<!-- Generator: Adobe Illustrator 15.1.0, SVG Export Plug-In . SVG Version: 6.00 Build 0)  -->

<svg version="1.1" id="_x32_" xmlns="http://www.w3.org/2000/svg" xmlns:xlink="http://www.w3.org/1999/xlink" x="0px" y="0px" width="512px" height="512px" viewBox="0 0 512 512" style="width: 256px; height: 256px; opacity: 1;" xml:space="preserve">
<style type="text/css">

	.st0{fill:#4B4B4B;}

</style>
<g>
	<path class="st0" d="M289.796,214.751v-44.219h-38.813c0.75-5.047,2.078-10.172,4.5-15.125c2.547-5.172,6.219-10.219,11.953-15.094
		c5.75-4.844,13.625-9.484,24.641-13.359c26.625-9.422,41.672-17.938,50.938-26.719c4.594-4.375,7.688-9,9.453-13.516
		s2.109-8.75,2.094-11.75c0-5.813-4.703-10.516-10.516-10.516c-5.797,0-10.5,4.703-10.5,10.516
		c-0.016,1.625-0.141,2.688-0.672,4.094c-0.797,2.016-2.859,5.484-9.984,10.453c-7.063,4.938-18.938,10.984-37.797,17.594
		c-13,4.578-23.266,10.422-31.219,17.141c-11.969,10.063-18.469,22.125-21.594,33.234c-1.297,4.578-2,8.906-2.469,13.047H185.78
		v46.703c-56.875,22.188-97.25,77.391-97.25,142.125c0,84.297,68.344,152.641,152.641,152.641
		c84.313,0,152.656-68.344,152.656-152.641C393.827,292.063,350.233,235.079,289.796,214.751z M190.827,280.579
		c-25.859,14.313-43.406,41.844-43.391,73.391c0,6.969-5.656,12.609-12.625,12.609s-12.609-5.641-12.609-12.609
		c0-41.078,22.828-76.922,56.406-95.469c6.109-3.375,13.781-1.172,17.141,4.938C199.124,269.532,196.921,277.204,190.827,280.579z" style="fill: rgb(58, 171, 210);"></path>
	<path class="st0" d="M342.077,38.985l4.281-0.344c0.391-0.031,0.719-0.359,0.703-0.766l-0.547-37.109
		c0.016-0.203-0.094-0.422-0.25-0.578c-0.156-0.125-0.359-0.203-0.563-0.188l-9.016,0.719c-0.203,0.016-0.406,0.109-0.531,0.266
		c-0.141,0.172-0.188,0.406-0.172,0.609l5.281,36.719C341.327,38.735,341.687,39.017,342.077,38.985z" style="fill: rgb(58, 171, 210);"></path>
	<path class="st0" d="M352.249,113.61l-4.266,0.344c-0.406,0.031-0.703,0.375-0.719,0.781l0.547,37.094
		c0.016,0.219,0.109,0.422,0.25,0.578c0.156,0.141,0.375,0.219,0.594,0.203l9-0.719c0.219-0.016,0.406-0.125,0.531-0.281
		c0.125-0.172,0.203-0.391,0.156-0.609l-5.266-36.719C353.015,113.876,352.655,113.579,352.249,113.61z" style="fill: rgb(58, 171, 210);"></path>
	<path class="st0" d="M316.14,53.626c0.328,0.25,0.781,0.203,1.063-0.109l2.766-3.25c0.266-0.313,0.25-0.781-0.047-1.063
		L293.296,23.36c-0.141-0.156-0.359-0.25-0.563-0.25c-0.203,0.031-0.422,0.125-0.578,0.297l-5.844,6.844
		c-0.125,0.172-0.203,0.375-0.172,0.594c0.016,0.203,0.141,0.406,0.297,0.531L316.14,53.626z" style="fill: rgb(58, 171, 210);"></path>
	<path class="st0" d="M378.187,98.985c-0.313-0.25-0.781-0.203-1.047,0.109l-2.766,3.25c-0.266,0.328-0.25,0.766,0.047,1.063
		l26.625,25.859c0.156,0.141,0.359,0.219,0.563,0.219c0.219,0,0.422-0.109,0.563-0.281l5.859-6.844
		c0.141-0.172,0.203-0.375,0.172-0.594c-0.016-0.219-0.141-0.422-0.297-0.531L378.187,98.985z" style="fill: rgb(58, 171, 210);"></path>
	<path class="st0" d="M271.874,87.313c0.172,0.141,0.375,0.203,0.594,0.172l36.734-5.281c0.391-0.063,0.688-0.422,0.672-0.813
		l-0.344-4.266c-0.031-0.406-0.391-0.719-0.781-0.719L271.64,76.97c-0.203-0.016-0.406,0.078-0.563,0.234
		c-0.141,0.156-0.234,0.359-0.203,0.578l0.719,9C271.608,86.985,271.718,87.188,271.874,87.313z" style="fill: rgb(58, 171, 210);"></path>
	<path class="st0" d="M422.765,65.829c-0.016-0.219-0.125-0.406-0.281-0.531c-0.172-0.141-0.391-0.219-0.609-0.172l-36.719,5.281
		c-0.422,0.047-0.688,0.406-0.656,0.828l0.328,4.25c0.031,0.406,0.359,0.719,0.781,0.719l37.094-0.547
		c0.219,0,0.422-0.094,0.578-0.25c0.141-0.156,0.203-0.375,0.188-0.578L422.765,65.829z" style="fill: rgb(58, 171, 210);"></path>
	<path class="st0" d="M373.233,49.11c0.297,0.266,0.766,0.234,1.031-0.063l25.875-26.609c0.141-0.172,0.219-0.375,0.219-0.578
		c-0.016-0.219-0.109-0.422-0.281-0.563l-6.859-5.844c-0.172-0.141-0.359-0.219-0.578-0.188s-0.406,0.141-0.547,0.313l-22.25,29.703
		c-0.234,0.328-0.188,0.781,0.125,1.047L373.233,49.11z" style="fill: rgb(58, 171, 210);"></path>
</g>
</svg>
