<!--?xml version="1.0" encoding="utf-8"?-->
<!-- Generator: Adobe Illustrator 18.1.1, SVG Export Plug-In . SVG Version: 6.00 Build 0)  -->

<svg version="1.1" id="_x32_" xmlns="http://www.w3.org/2000/svg" xmlns:xlink="http://www.w3.org/1999/xlink" x="0px" y="0px" viewBox="0 0 512 512" style="width: 256px; height: 256px; opacity: 1;" xml:space="preserve">
<style type="text/css">
	.st0{fill:#4B4B4B;}
</style>
<g>
	<path class="st0" d="M502.635,303.806l-36.362-30.116c-6.422-3.58-10.414-10.341-10.414-17.684s3.992-14.126,10.414-17.691
		l36.362-30.101c7.292-4.066,10.9-12.565,8.742-20.652c-2.173-8.058-9.523-13.618-17.89-13.486l-46.562-7.888
		c-7.328,0.111-14.178-3.748-17.846-10.112c-3.661-6.371-3.602-14.23,0.184-20.527l16.417-44.256
		c4.301-7.174,3.174-16.336-2.726-22.236c-5.907-5.914-15.076-7.048-22.228-2.754l-44.286,16.446
		c-6.282,3.778-14.141,3.837-20.501,0.162c-6.37-3.668-10.237-10.502-10.126-17.846l-7.885-46.57
		c0.129-8.338-5.442-15.71-13.507-17.875c-8.057-2.158-16.56,1.436-20.622,8.743l-30.098,36.368
		c-3.576,6.422-10.359,10.414-17.691,10.414c-7.354,0-14.138-3.992-17.706-10.414L208.207,9.364
		c-4.043-7.307-12.554-10.9-20.637-8.743c-8.057,2.165-13.629,9.538-13.492,17.875l-7.896,46.57
		c0.129,7.343-3.738,14.178-10.109,17.846c-6.359,3.675-14.225,3.616-20.522-0.162L91.283,66.304
		c-7.166-4.294-16.317-3.16-22.235,2.754c-5.899,5.9-7.03,15.062-2.736,22.236l16.431,44.256c3.778,6.297,3.859,14.156,0.184,20.527
		c-3.679,6.364-10.51,10.223-17.857,10.112l-46.562,7.888c-8.334-0.133-15.721,5.428-17.89,13.486
		c-2.143,8.087,1.437,16.586,8.742,20.652l36.362,30.101c6.445,3.565,10.418,10.348,10.418,17.691s-3.974,14.104-10.418,17.684
		L9.36,303.806c-7.306,4.051-10.885,12.565-8.742,20.622c2.169,8.072,9.556,13.64,17.89,13.5l46.562,7.896
		c7.347-0.133,14.178,3.734,17.857,10.105c3.675,6.378,3.594,14.215-0.184,20.527L66.312,420.72
		c-4.294,7.159-3.163,16.321,2.736,22.236c5.918,5.899,15.069,7.034,22.235,2.74l44.268-16.439
		c6.297-3.793,14.163-3.845,20.522-0.177c6.372,3.683,10.238,10.526,10.109,17.861l7.896,46.562
		c-0.136,8.352,5.436,15.725,13.492,17.868c8.083,2.18,16.594-1.429,20.637-8.735l30.098-36.369
		c3.568-6.423,10.351-10.4,17.706-10.4c7.332,0,14.115,3.977,17.691,10.4l30.098,36.369c4.062,7.306,12.565,10.914,20.622,8.735
		c8.065-2.143,13.636-9.516,13.507-17.868l7.885-46.562c-0.111-7.335,3.756-14.178,10.126-17.861
		c6.36-3.668,14.219-3.616,20.501,0.177l44.286,16.439c7.151,4.294,16.321,3.159,22.228-2.74c5.899-5.914,7.027-15.076,2.726-22.236
		l-16.417-44.264c-3.786-6.312-3.845-14.149-0.184-20.527c3.668-6.371,10.517-10.238,17.846-10.105l46.562-7.896
		c8.367,0.14,15.717-5.428,17.89-13.5C513.536,316.371,509.927,307.857,502.635,303.806z M328.343,201.21
		c13.935,0,25.277,11.327,25.277,25.262c0,13.934-11.342,25.278-25.277,25.278c-13.942,0-25.28-11.343-25.28-25.278
		C303.063,212.537,314.401,201.21,328.343,201.21z M181.395,201.21c13.927,0,25.262,11.327,25.262,25.262
		c0,13.934-11.335,25.278-25.262,25.278c-13.935,0-25.278-11.343-25.278-25.278C156.118,212.537,167.46,201.21,181.395,201.21z
		 M354.534,341.22c-4.268,0-8.322-0.913-11.81-2.636c-3.602-1.768-6.268-4.176-7.962-5.819c-1.395-1.414-2.592-2.739-3.697-3.962
		c-1.809-2.01-3.377-3.741-4.74-4.618c-1.348-0.876-2.446-1.318-4.707-1.348c-1.793,0.015-2.817,0.383-3.649,0.774
		c-0.928,0.448-1.922,1.215-3.094,2.378c-0.888,0.855-1.72,1.797-2.633,2.828c-2.114,2.386-4.747,5.362-8.507,7.947
		c-2.997,2.04-7.969,4.456-14.726,4.456h-0.258c-4.231,0-8.285-0.913-11.78-2.636c-2.795-1.377-5.328-3.241-7.968-5.862
		c-1.367-1.377-2.57-2.71-3.675-3.933c-1.816-2.003-3.385-3.726-4.74-4.61c-1.341-0.869-2.423-1.311-4.699-1.341
		c-1.79,0.015-2.802,0.376-3.631,0.766c-0.913,0.456-1.908,1.222-3.078,2.386c-0.888,0.855-1.727,1.805-2.637,2.836
		c-2.11,2.386-4.74,5.354-8.482,7.939c-2.986,2.04-7.957,4.456-14.722,4.456c-4.481,0-8.529-0.913-12.016-2.636
		c-2.795-1.385-5.328-3.241-7.969-5.855c-1.363-1.378-2.548-2.689-3.638-3.896c-1.827-2.018-3.399-3.771-4.773-4.648
		c-1.341-0.876-2.423-1.318-4.67-1.348c-1.694,0.015-2.703,0.317-3.672,0.774c-0.888,0.434-1.848,1.186-3.053,2.378
		c-0.902,0.855-1.742,1.819-2.655,2.858c-2.114,2.379-4.732,5.34-8.463,7.91c-2.986,2.048-7.958,4.463-14.734,4.463
		c-5.322,0-9.468-4.153-9.468-9.25s4.147-9.243,9.244-9.243c1.841-0.008,2.858-0.368,3.682-0.759
		c0.935-0.464,1.929-1.23,3.097-2.379c0.873-0.84,1.705-1.79,2.611-2.814c2.114-2.401,4.747-5.384,8.514-7.976
		c2.979-2.032,7.947-4.448,14.745-4.448c4.456,0,8.503,0.914,11.99,2.651c3.642,1.783,6.29,4.184,7.966,5.826
		c1.385,1.406,2.585,2.74,3.69,3.962c1.8,2.003,3.358,3.734,4.71,4.595c1.348,0.877,2.426,1.319,4.68,1.341
		c1.8-0.008,2.817-0.368,3.642-0.759c0.902-0.45,1.904-1.215,3.108-2.394c0.825-0.803,1.646-1.731,2.534-2.74
		c2.132-2.416,4.78-5.42,8.551-8.028c3.006-2.04,7.976-4.456,14.745-4.456c4.441,0,8.499,0.914,12.005,2.644
		c3.624,1.768,6.282,4.169,7.969,5.812c1.388,1.414,2.589,2.739,3.69,3.962c1.816,2.018,3.38,3.756,4.728,4.625
		c1.348,0.87,2.442,1.312,4.7,1.334c1.698-0.008,2.692-0.309,3.657-0.759c0.932-0.471,1.933-1.238,3.093-2.386
		c0.888-0.847,1.719-1.797,2.626-2.828c2.121-2.386,4.761-5.362,8.499-7.947c3.005-2.04,7.98-4.456,14.767-4.456
		c4.459,0,8.518,0.914,12.012,2.644c2.77,1.355,5.306,3.204,7.969,5.826c1.381,1.4,2.578,2.725,3.69,3.948
		c1.812,2.018,3.376,3.749,4.739,4.625c1.34,0.87,2.431,1.312,4.692,1.334c5.056,0,9.206,4.146,9.206,9.243
		S359.631,341.22,354.534,341.22z" style="fill: rgb(0, 0, 205);"></path>
</g>
</svg>
